# Blender 3.5.1
# www.blender.org
mtllib stage_top.mtl
o stage_top
v 3.297742 0.761095 3.463411
v -0.019314 0.761095 3.463411
v -3.336370 0.761095 3.463411
v 3.297742 0.761095 -3.435895
v 3.297742 0.761095 0.013758
v -0.019314 0.761095 -3.435895
v -3.336370 0.761095 -3.435895
v -0.019314 0.773835 0.013758
v -3.336370 0.761095 0.013758
v -1.677842 0.767465 0.013758
vn -0.0000 1.0000 -0.0000
vn 0.0038 1.0000 0.0037
vn -0.0038 1.0000 0.0037
vn 0.0038 1.0000 -0.0037
vn -0.0038 1.0000 -0.0037
s 0
usemtl Material.009
f 5//1 2//1 1//1
f 2//1 9//1 3//1
f 6//1 5//1 4//1
f 9//1 6//1 7//1
f 5//2 8//2 2//2
f 2//3 10//3 9//3
f 6//4 8//4 5//4
f 10//5 6//5 9//5
f 2//3 8//3 10//3
f 10//5 8//5 6//5
