# Blender 3.5.1
# www.blender.org
o stage_R.001
v -0.063908 -0.262075 3.342865
v -0.063908 0.787067 3.342865
v 0.139851 0.800526 3.130961
v -0.049227 0.806091 3.327597
v 0.139834 0.806091 3.130979
v -0.058311 0.800457 3.337044
v -0.063908 -0.262076 -3.590686
v -0.063908 -0.262075 -0.123911
v -0.063908 0.787067 -3.590686
v -0.063908 0.787067 -0.123911
v -0.049227 0.806091 -3.575419
v 0.139834 0.806091 -0.123911
v -0.049227 0.806091 -0.123911
v -0.058311 0.800457 -0.123911
v -0.058311 0.800457 -3.584865
v -0.049227 0.806091 -0.123911
v 0.139834 0.806091 -3.378800
v 0.139834 0.806091 -3.378800
v 0.139834 0.806091 -0.123911
v -0.058311 0.800457 -0.123911
v -0.049227 0.806091 3.327597
v 0.139834 0.806091 3.130979
v 0.139842 0.803309 -1.751347
v -0.063907 0.485964 1.386010
v -0.059713 0.797103 1.602946
v 0.091198 0.806091 1.457640
v 0.139839 0.804699 1.504920
v -0.051501 0.804680 1.599175
v -0.063908 0.485963 -1.633831
v -0.059713 0.797102 -1.850767
v 0.091198 0.806091 -1.705462
v 0.139837 0.805395 -1.751355
v -0.051501 0.804680 -1.846997
v -0.063907 0.039029 1.832945
v -0.062506 0.790419 1.611923
v -0.001410 0.806091 1.619509
v -0.056038 0.801867 1.607767
v -0.063908 0.039028 -2.080766
v -0.062506 0.790419 -1.859744
v -0.001409 0.806091 -1.867331
v -0.056038 0.801866 -1.855588
vn -0.9227 0.3856 -0.0000
vn -0.0000 1.0000 -0.0000
vn 1.0000 0.0028 -0.0000
vn -0.5270 0.8499 0.0003
vn -0.5273 0.8497 -0.0000
vn -0.5270 0.8499 -0.0000
vn -1.0000 -0.0000 -0.0000
vn -0.9226 0.3857 -0.0000
vn 1.0000 0.0027 -0.0000
vn -0.5270 0.8499 -0.0003
vn -0.9226 0.3856 -0.0000
vn -0.5271 0.8498 -0.0000
vn 1.0000 0.0033 -0.0000
vn 1.0000 0.0030 -0.0000
vn -0.5274 0.8496 -0.0000
vn -0.5271 0.8498 0.0003
vn 1.0000 0.0031 -0.0000
vn -0.5271 0.8498 -0.0003
vn -0.5270 0.8498 -0.0000
s 0
f 10//1 6//1 25//1
f 13//2 22//2 26//2
f 3//3 19//3 27//3
f 14//4 21//5 28//6
f 9//7 8//7 29//7
f 15//8 10//8 30//8
f 18//2 13//2 31//2
f 23//9 17//9 32//9
f 11//5 20//10 33//6
f 8//7 1//7 34//7
f 10//11 2//11 35//11
f 13//2 21//2 36//2
f 20//6 6//6 37//6
f 9//7 7//7 38//7
f 15//8 9//8 39//8
f 17//2 11//2 40//2
f 11//12 15//12 41//12
f 8//7 2//7 24//7
f 2//7 10//7 24//7
f 10//7 8//7 24//7
f 6//8 20//8 25//8
f 20//8 10//8 25//8
f 22//2 12//2 26//2
f 12//2 13//2 26//2
f 19//13 5//13 27//13
f 5//14 3//14 27//14
f 21//15 13//16 28//12
f 13//15 14//15 28//12
f 8//7 10//7 29//7
f 10//7 9//7 29//7
f 10//8 20//8 30//8
f 20//8 15//8 30//8
f 13//2 12//2 31//2
f 12//2 18//2 31//2
f 17//17 19//17 32//17
f 19//9 23//9 32//9
f 20//15 16//15 33//12
f 16//18 11//15 33//12
f 1//7 2//7 34//7
f 2//7 8//7 34//7
f 2//8 6//8 35//8
f 6//8 10//8 35//8
f 21//2 22//2 36//2
f 22//2 13//2 36//2
f 6//12 4//12 37//12
f 4//12 20//12 37//12
f 7//7 8//7 38//7
f 8//7 9//7 38//7
f 9//8 10//8 39//8
f 10//1 15//1 39//1
f 11//2 16//2 40//2
f 16//2 17//2 40//2
f 15//19 20//19 41//19
f 20//12 11//12 41//12
