# Blender 3.5.1
# www.blender.org
o stairR
v 3.658518 -0.251964 -4.110822
v 3.658518 0.008270 -4.110822
v 4.564155 -0.251964 -3.205184
v 4.564155 0.008270 -3.205184
v 2.226380 -0.251964 -2.678684
v 2.226380 0.008270 -2.678684
v 3.132017 -0.251964 -1.773046
v 3.132017 0.008270 -1.773046
v 3.460880 0.005471 -3.918288
v 3.460880 0.265705 -3.918288
v 4.366518 0.005471 -3.012651
v 4.366518 0.265705 -3.012651
v 2.236180 0.005471 -2.690783
v 2.236180 0.265705 -2.690783
v 3.141817 0.005471 -1.785145
v 3.141817 0.265705 -1.785145
v 3.141175 0.259256 -3.598583
v 3.141175 0.519490 -3.598583
v 4.046813 0.259256 -2.692946
v 4.046813 0.519490 -2.692946
v 2.245542 0.259256 -2.700145
v 2.245542 0.519490 -2.700145
v 3.151180 0.259256 -1.794508
v 3.151180 0.519490 -1.794508
vn 0.7071 -0.0000 -0.7071
vn 0.7071 -0.0000 0.7071
vn -0.7071 -0.0000 0.7071
vn -0.7071 -0.0000 -0.7071
vn -0.0000 -1.0000 -0.0000
vn -0.0000 1.0000 -0.0000
vn 0.7079 -0.0000 0.7063
vn -0.7079 -0.0000 -0.7063
vn 0.7082 -0.0000 0.7060
vn -0.7082 -0.0000 -0.7060
vt 0.375000 0.000000
vt 0.375000 1.000000
vt 0.125000 0.750000
vt 0.625000 0.000000
vt 0.625000 1.000000
vt 0.875000 0.750000
vt 0.125000 0.500000
vt 0.375000 0.250000
vt 0.625000 0.250000
vt 0.875000 0.500000
vt 0.375000 0.750000
vt 0.625000 0.750000
vt 0.375000 0.500000
vt 0.625000 0.500000
vt 0.375000 0.000000
vt 0.375000 1.000000
vt 0.125000 0.750000
vt 0.625000 0.000000
vt 0.625000 1.000000
vt 0.875000 0.750000
vt 0.375000 0.250000
vt 0.125000 0.500000
vt 0.625000 0.250000
vt 0.875000 0.500000
vt 0.375000 0.750000
vt 0.625000 0.750000
vt 0.375000 0.500000
vt 0.625000 0.500000
vt 0.375000 0.000000
vt 0.125000 0.750000
vt 0.375000 1.000000
vt 0.625000 0.000000
vt 0.625000 1.000000
vt 0.875000 0.750000
vt 0.375000 0.250000
vt 0.125000 0.500000
vt 0.625000 0.250000
vt 0.875000 0.500000
vt 0.375000 0.750000
vt 0.625000 0.750000
vt 0.375000 0.500000
vt 0.625000 0.500000
s 0
f 2/4/1 3/8/1 1/1/1
f 4/9/2 7/13/2 3/8/2
f 8/14/3 5/11/3 7/13/3
f 6/12/4 1/2/4 5/11/4
f 7/13/5 1/3/5 3/7/5
f 4/10/6 6/12/6 8/14/6
f 10/18/1 11/21/1 9/15/1
f 12/23/7 15/27/7 11/21/7
f 16/28/3 13/25/3 15/27/3
f 13/25/8 10/19/8 9/16/8
f 11/22/5 13/25/5 9/17/5
f 12/24/6 14/26/6 16/28/6
f 18/32/1 19/35/1 17/29/1
f 20/37/9 23/41/9 19/35/9
f 24/42/3 21/39/3 23/41/3
f 22/40/10 17/31/10 21/39/10
f 19/36/5 21/39/5 17/30/5
f 20/38/6 22/40/6 24/42/6
f 2/4/1 4/9/1 3/8/1
f 4/9/2 8/14/2 7/13/2
f 8/14/3 6/12/3 5/11/3
f 6/12/4 2/5/4 1/2/4
f 7/13/5 5/11/5 1/3/5
f 4/10/6 2/6/6 6/12/6
f 10/18/1 12/23/1 11/21/1
f 12/23/7 16/28/7 15/27/7
f 16/28/3 14/26/3 13/25/3
f 13/25/8 14/26/8 10/19/8
f 11/22/5 15/27/5 13/25/5
f 12/24/6 10/20/6 14/26/6
f 18/32/1 20/37/1 19/35/1
f 20/37/9 24/42/9 23/41/9
f 24/42/3 22/40/3 21/39/3
f 22/40/10 18/33/10 17/31/10
f 19/36/5 23/41/5 21/39/5
f 20/38/6 18/34/6 22/40/6
