# Blender 3.5.1
# www.blender.org
o stage_B.001
v 3.477818 -0.262075 0.086992
v 3.477818 0.787067 0.086992
v 3.274060 0.800526 -0.124912
v 3.463137 0.806091 0.071724
v 3.472221 0.800457 0.081171
v -3.189223 -0.262075 0.086992
v 0.144298 -0.262075 0.086992
v -3.189223 0.787067 0.086992
v 0.144298 0.800526 -0.124912
v 0.144298 0.787067 0.086992
v -2.985464 0.800526 -0.124912
v -3.174542 0.806091 0.071724
v -2.985481 0.806091 -0.124894
v 0.144298 0.806091 0.071724
v 0.144298 0.806091 -0.124894
v -3.183626 0.800457 0.081171
v 0.144298 0.800457 0.081171
v 0.144298 0.806091 0.071724
v 3.274076 0.806091 -0.124894
v 3.274076 0.806091 -0.124894
v 0.144298 0.806091 -0.124894
v -3.174542 0.806091 0.071724
v -2.985481 0.806091 -0.124894
vn -0.0000 -0.0000 1.0000
vn -0.0000 0.3987 0.9171
vn -0.0000 1.0000 -0.0000
vn -0.0000 0.8589 0.5122
vn -0.0000 0.0032 -1.0000
vn -0.0000 0.0029 -1.0000
s 0
f 10//1 1//1 2//1
f 5//2 10//2 2//2
f 19//3 18//3 4//3
f 4//4 17//4 5//4
f 6//1 10//1 8//1
f 16//2 10//2 17//2
f 23//3 14//3 15//3
f 21//5 11//5 13//5
f 12//4 17//4 18//4
f 10//1 7//1 1//1
f 5//2 17//2 10//2
f 20//3 15//3 14//3
f 21//6 19//6 3//6
f 4//4 18//4 17//4
f 6//1 7//1 10//1
f 16//2 8//2 10//2
f 23//3 22//3 14//3
f 21//6 9//6 11//6
f 12//4 16//4 17//4
