# Blender 3.5.1
# www.blender.org
mtllib stair2.mtl
o stairL
v -3.814132 -0.271726 4.840799
v -3.814132 -0.011492 4.840799
v -4.704614 -0.271726 3.920255
v -4.704614 -0.011492 3.920255
v -2.358422 -0.271727 3.432627
v -2.358422 -0.011493 3.432627
v -3.248904 -0.271727 2.512084
v -3.248904 -0.011493 2.512084
v -3.613327 -0.014291 4.651572
v -3.613327 0.245943 4.651572
v -4.503809 -0.014291 3.731027
v -4.503809 0.245943 3.731027
v -2.368422 -0.014292 3.444562
v -2.368422 0.245942 3.444562
v -3.258903 -0.014292 2.524019
v -3.258903 0.245942 2.524019
v -3.288360 0.239494 4.337217
v -3.288360 0.499728 4.337217
v -4.178841 0.239493 3.416673
v -4.178841 0.499727 3.416673
v -2.377938 0.239493 3.453768
v -2.377938 0.499727 3.453768
v -3.268420 0.239493 2.533224
v -3.268420 0.499727 2.533224
vn -0.7187 -0.0000 0.6953
vn -0.6953 -0.0000 -0.7187
vn 0.7187 -0.0000 -0.6953
vn 0.6953 -0.0000 0.7187
vn -0.0000 -1.0000 -0.0000
vn -0.0000 1.0000 -0.0000
vn -0.6961 -0.0000 -0.7180
vn 0.6961 -0.0000 0.7179
vn -0.6964 -0.0000 -0.7177
vn 0.6964 -0.0000 0.7177
vt 0.375000 0.000000
vt 0.375000 1.000000
vt 0.125000 0.750000
vt 0.625000 0.000000
vt 0.625000 1.000000
vt 0.875000 0.750000
vt 0.125000 0.500000
vt 0.375000 0.250000
vt 0.625000 0.250000
vt 0.875000 0.500000
vt 0.375000 0.750000
vt 0.625000 0.750000
vt 0.375000 0.500000
vt 0.625000 0.500000
vt 0.375000 0.000000
vt 0.375000 1.000000
vt 0.125000 0.750000
vt 0.625000 0.000000
vt 0.625000 1.000000
vt 0.875000 0.750000
vt 0.375000 0.250000
vt 0.125000 0.500000
vt 0.625000 0.250000
vt 0.875000 0.500000
vt 0.375000 0.750000
vt 0.625000 0.750000
vt 0.375000 0.500000
vt 0.625000 0.500000
vt 0.375000 0.000000
vt 0.125000 0.750000
vt 0.375000 1.000000
vt 0.625000 0.000000
vt 0.625000 1.000000
vt 0.875000 0.750000
vt 0.375000 0.250000
vt 0.125000 0.500000
vt 0.625000 0.250000
vt 0.875000 0.500000
vt 0.375000 0.750000
vt 0.625000 0.750000
vt 0.375000 0.500000
vt 0.625000 0.500000
s 0
f 2/4/1 3/8/1 1/1/1
f 4/9/2 7/13/2 3/8/2
f 8/14/3 5/11/3 7/13/3
f 6/12/4 1/2/4 5/11/4
f 7/13/5 1/3/5 3/7/5
f 4/10/6 6/12/6 8/14/6
f 10/18/1 11/21/1 9/15/1
f 12/23/7 15/27/7 11/21/7
f 16/28/3 13/25/3 15/27/3
f 13/25/8 10/19/8 9/16/8
f 11/22/5 13/25/5 9/17/5
f 12/24/6 14/26/6 16/28/6
f 18/32/1 19/35/1 17/29/1
f 20/37/9 23/41/9 19/35/9
f 24/42/3 21/39/3 23/41/3
f 22/40/10 17/31/10 21/39/10
f 19/36/5 21/39/5 17/30/5
f 20/38/6 22/40/6 24/42/6
f 2/4/1 4/9/1 3/8/1
f 4/9/2 8/14/2 7/13/2
f 8/14/3 6/12/3 5/11/3
f 6/12/4 2/5/4 1/2/4
f 7/13/5 5/11/5 1/3/5
f 4/10/6 2/6/6 6/12/6
f 10/18/1 12/23/1 11/21/1
f 12/23/7 16/28/7 15/27/7
f 16/28/3 14/26/3 13/25/3
f 13/25/8 14/26/8 10/19/8
f 11/22/5 15/27/5 13/25/5
f 12/24/6 10/20/6 14/26/6
f 18/32/1 20/37/1 19/35/1
f 20/37/9 24/42/9 23/41/9
f 24/42/3 22/40/3 21/39/3
f 22/40/10 18/33/10 17/31/10
f 19/36/5 23/41/5 21/39/5
f 20/38/6 18/34/6 22/40/6
